<mxfile host="app.diagrams.net" modified="2024-04-27T17:20:07.423Z" agent="Mozilla/5.0 (X11; Linux x86_64) AppleWebKit/537.36 (KHTML, like Gecko) Chrome/122.0.0.0 Safari/537.36" etag="qNu5sk9lJsretByMq-hH" version="24.3.0" type="github">
  <diagram id="C5RBs43oDa-KdzZeNtuy" name="Page-1">
    <mxGraphModel dx="1432" dy="682" grid="1" gridSize="10" guides="1" tooltips="1" connect="1" arrows="1" fold="1" page="1" pageScale="1" pageWidth="827" pageHeight="1169" math="0" shadow="0">
      <root>
        <mxCell id="WIyWlLk6GJQsqaUBKTNV-0" />
        <mxCell id="WIyWlLk6GJQsqaUBKTNV-1" parent="WIyWlLk6GJQsqaUBKTNV-0" />
        <mxCell id="DL4nsBVzCyI4VSnAJoLp-0" value="OrderMgr&lt;div&gt;&lt;br&gt;&lt;/div&gt;" style="swimlane;fontStyle=1;align=center;verticalAlign=top;childLayout=stackLayout;horizontal=1;startSize=26;horizontalStack=0;resizeParent=1;resizeParentMax=0;resizeLast=0;collapsible=1;marginBottom=0;whiteSpace=wrap;html=1;" vertex="1" parent="WIyWlLk6GJQsqaUBKTNV-1">
          <mxGeometry x="50" y="150" width="270" height="248" as="geometry" />
        </mxCell>
        <mxCell id="DL4nsBVzCyI4VSnAJoLp-1" value="- ordersMap : &amp;lt;order_id, Order*&amp;gt;&lt;div&gt;- deliverMgr : DeliveryMgr*&amp;nbsp;&lt;/div&gt;&lt;div&gt;- foodMgr : FoodMgr*&lt;/div&gt;&lt;div&gt;-&amp;nbsp;&lt;span style=&quot;background-color: initial;&quot;&gt;&lt;u&gt;orderMgrInstance : OrderMgr*&lt;/u&gt;&lt;/span&gt;&lt;/div&gt;&lt;div&gt;&lt;br&gt;&lt;/div&gt;" style="text;strokeColor=none;fillColor=none;align=left;verticalAlign=top;spacingLeft=4;spacingRight=4;overflow=hidden;rotatable=0;points=[[0,0.5],[1,0.5]];portConstraint=eastwest;whiteSpace=wrap;html=1;" vertex="1" parent="DL4nsBVzCyI4VSnAJoLp-0">
          <mxGeometry y="26" width="270" height="94" as="geometry" />
        </mxCell>
        <mxCell id="DL4nsBVzCyI4VSnAJoLp-2" value="" style="line;strokeWidth=1;fillColor=none;align=left;verticalAlign=middle;spacingTop=-1;spacingLeft=3;spacingRight=3;rotatable=0;labelPosition=right;points=[];portConstraint=eastwest;strokeColor=inherit;" vertex="1" parent="DL4nsBVzCyI4VSnAJoLp-0">
          <mxGeometry y="120" width="270" height="8" as="geometry" />
        </mxCell>
        <mxCell id="DL4nsBVzCyI4VSnAJoLp-3" value="+ OrderMgr()&lt;div&gt;- manageDelivery(String orderId, Order* order)&lt;/div&gt;&lt;div&gt;- mangeFood(String orderId, Order* order)&lt;/div&gt;&lt;div&gt;+ &lt;u&gt;getOrderMg() : OrderMg*&lt;/u&gt;&lt;/div&gt;&lt;div&gt;+ createOrder(String orderId, Order* order)&lt;/div&gt;&lt;div&gt;+ getOrder(String orderId, Order* order)&amp;nbsp;&lt;/div&gt;" style="text;strokeColor=none;fillColor=none;align=left;verticalAlign=top;spacingLeft=4;spacingRight=4;overflow=hidden;rotatable=0;points=[[0,0.5],[1,0.5]];portConstraint=eastwest;whiteSpace=wrap;html=1;" vertex="1" parent="DL4nsBVzCyI4VSnAJoLp-0">
          <mxGeometry y="128" width="270" height="120" as="geometry" />
        </mxCell>
      </root>
    </mxGraphModel>
  </diagram>
</mxfile>
